<svg xmlns="http://www.w3.org/2000/svg" width="367.339" height="367.34"  xmlns:v="https://vecta.io/nano"><path d="M337.591.932c-13.464 6.12-26.315 12.852-39.168 20.196-11.628 6.12-25.704 12.24-35.496 21.42-5.508 4.896 0 15.3 7.344 12.852 0 0 .612 0 .612-.612 1.836 1.224 3.061 2.448 4.896 4.284 0 .612.611 1.836.611 2.448.612 1.224 1.836 2.448 3.061 3.672-17.748 33.048-34.272 66.096-55.08 96.696-6.12 9.18-12.853 17.748-20.808 25.704-19.584-31.212-51.409-67.32-89.965-60.588-50.796 9.18-23.256 63.647 3.06 82.008 31.212 22.644 58.14 21.42 85.068 0 12.24 20.808 20.809 44.063 19.584 66.708-1.836 54.468-50.796 63.647-91.8 49.571 6.12-15.912 7.956-34.271 4.284-50.184-6.12-28.764-50.184-54.468-75.888-34.272-25.092 20.196 22.032 71.604 37.332 82.009 4.284 3.06 9.18 6.119 14.076 8.567-.612.612-.612 1.225-1.224 1.836-28.152 44.064-65.484 6.12-82.62-25.092-2.448-4.896-9.18-.612-7.344 4.284 14.076 32.436 42.84 70.38 81.396 48.348 9.18-5.508 17.136-13.464 22.644-23.256 33.66 13.464 72.829 13.464 97.308-17.136 29.376-36.72 11.017-84.456-8.567-119.952l1.224-1.224c34.884-33.66 56.304-81.396 78.336-124.236 4.284 3.06 9.181 6.12 13.464 9.18 3.061 1.836 7.345 1.224 9.792-1.224 17.748-20.808 31.212-45.9 35.496-73.44 1.836-6.731-4.895-11.627-11.628-8.567zm-159.12 206.855c-23.256 13.464-46.512-3.06-63.648-18.972-22.644-20.808-16.524-54.468 18.36-47.735 17.748 3.672 31.824 19.584 43.452 32.436 6.12 6.732 12.241 14.687 17.749 23.255-4.896 4.285-10.405 7.957-15.913 11.016zm-62.424 111.384s-.612 0 0 0c-16.524-8.567-28.764-20.808-38.556-36.107-4.284-6.732-7.956-14.076-9.792-22.032-6.12-20.808 26.928-10.404 35.496-6.12 23.256 12.852 21.42 42.228 12.852 64.259zM306.379 67.028c-.612 0-.612-.612-1.224-.612 0-1.836-1.225-3.672-3.672-4.896-4.284-1.836-8.568-4.284-12.853-6.732-1.836-1.224-5.508-4.896-5.508-3.672 0-.612-.612-1.224-1.224-1.224 6.731-3.672 13.464-8.568 20.195-12.24 8.568-4.896 17.748-9.792 26.929-14.688-4.282 15.3-12.238 30.6-22.643 44.064z"/></svg>