<?xml version="1.0" encoding="iso-8859-1"?>
<!-- Generator: Adobe Illustrator 16.0.0, SVG Export Plug-In . SVG Version: 6.00 Build 0)  -->
<!DOCTYPE svg PUBLIC "-//W3C//DTD SVG 1.1//EN" "http://www.w3.org/Graphics/SVG/1.1/DTD/svg11.dtd">
<svg version="1.1" id="Capa_1" xmlns="http://www.w3.org/2000/svg" xmlns:xlink="http://www.w3.org/1999/xlink" x="0px" y="0px"
	 width="333.557px" height="333.557px" viewBox="0 0 333.557 333.557" style="enable-background:new 0 0 333.557 333.557;"
	 xml:space="preserve">
<g>
	<g>
		<path d="M140.19,60.733c-44.676-8.568-86.292-27.54-130.356-36.72c-4.284-0.612-10.404,2.448-9.792,7.344
			c5.508,47.124,22.032,91.8,39.78,135.863c1.836,4.896,9.18,3.672,8.568-1.224c15.3-8.568,21.42-39.78,23.256-58.14
			c27.54-4.896,50.796-14.688,71.604-33.66C147.535,69.913,145.699,61.957,140.19,60.733z M56.958,101.125
			c-0.612,16.524-9.18,30.6-14.076,45.288c-11.016-34.272-21.42-68.544-26.316-104.652c35.496,8.568,69.156,22.032,104.652,31.212
			c-17.136,11.628-36.72,17.748-58.14,21.42C58.794,93.781,56.958,97.453,56.958,101.125z"/>
		<path d="M236.275,134.173c-41.004,0-81.397,0-122.401,0c-6.12,0-9.18,6.732-6.732,11.628
			c15.912,35.496,32.436,70.992,47.124,107.712c1.836,4.283,6.732,3.672,8.568,0.611c1.836,3.672,8.568,3.061,8.568-1.836
			c1.225-20.808,0.612-42.84,11.629-61.2c11.016-17.748,38.556-26.928,56.916-34.884c4.284-1.836,4.284-6.12,2.448-9.18
			C245.455,142.129,243.619,134.173,236.275,134.173z M170.791,183.745c-12.241,17.136-9.792,43.452-8.568,64.26
			c-9.18-33.659-22.644-66.096-36.72-97.919c31.212,0,62.424,0,93.636,0C200.779,157.429,182.419,167.22,170.791,183.745z"/>
		<path d="M325.627,199.044c-39.168-0.611-77.724-3.06-116.28,4.284c-5.508,1.225-7.344,7.956-4.896,12.24
			c17.136,29.376,32.436,59.976,51.408,88.74c1.224,1.836,3.06,2.447,4.896,2.447c1.224,4.284,9.18,3.673,8.568-1.224
			c-1.836-13.464,1.224-26.316,3.672-39.168c2.448-13.464,2.448-12.24,14.076-18.972c12.852-7.345,31.212-18.973,41.004-31.824
			C336.031,212.508,335.419,199.044,325.627,199.044z M265.039,241.273c-2.448,1.224-3.672,3.672-3.672,6.12
			c0.611,12.239-1.836,25.092-2.448,37.332c-11.016-22.645-22.644-45.9-34.884-67.933c26.928-4.284,54.468-3.06,82.008-2.447
			c-1.224,1.224-3.06,2.447-4.284,3.672C290.743,227.809,278.503,235.765,265.039,241.273z"/>
	</g>
</g>
<g>
</g>
<g>
</g>
<g>
</g>
<g>
</g>
<g>
</g>
<g>
</g>
<g>
</g>
<g>
</g>
<g>
</g>
<g>
</g>
<g>
</g>
<g>
</g>
<g>
</g>
<g>
</g>
<g>
</g>
</svg>
