<svg id="Layer_1" height="512" viewBox="0 0 512 512" width="512" xmlns="http://www.w3.org/2000/svg" data-name="Layer 1"><path d="m323.94 122.634a16.173 16.173 0 0 0 -22.24 3l22.49-31.87a17.213 17.213 0 0 0 -27.82-20.27l-10.37 13.76a18.478 18.478 0 0 0 -31.04-19.754l-125.99 152.464-.02-.02c1.69-14.59-4.07-56.04-13.08-75.26-6.56-13.99-28.67-30.01-38.55-14.94-2.92 4.46-1.04 11.33 1.42 21.94l3.79 24.15a77.837 77.837 0 0 1 -1.25 30.44l-4.84 19.98c-3.31 14.27 8.78 88.31 13.03 113.29a18.86 18.86 0 0 1 -3.79 14.83l-24.57 45.67 139.64-26.47 127.24-229.04a16.227 16.227 0 0 0 -4.05-21.9z" fill="#ffd8b7"/><path d="m282.65 65.824a18.448 18.448 0 0 0 -27.69 1.68l-125.87 152.973c1.907 13.086 2.676 25.23 1.91 31.847l143.96-174.824a18.349 18.349 0 0 1 11.14-6.8 18.5 18.5 0 0 0 -3.45-4.876z" fill="#eac3a7"/><path d="m109.47 349.544c-4.25-24.98-16.34-99.02-13.03-113.29l4.84-19.98a77.837 77.837 0 0 0 1.25-30.44l-3.79-24.15c-2.46-10.61-4.34-17.48-1.42-21.94a12.414 12.414 0 0 1 10.491-6.067c-9.443-9.317-23.249-14.979-30.491-3.933-2.92 4.46-1.04 11.33 1.42 21.94l3.79 24.15a77.837 77.837 0 0 1 -1.25 30.44l-4.84 19.98c-3.31 14.27 8.78 88.31 13.03 113.29a18.86 18.86 0 0 1 -3.79 14.83l-24.57 45.67 28.262-5.357 16.308-30.313a18.86 18.86 0 0 0 3.79-14.83z" fill="#eac3a7"/><path d="m410.83 181.424a17.185 17.185 0 0 0 -23.98-4.56l-14.22 9.76a18.486 18.486 0 0 0 -23.13-28.63l-122.43 81.4c-7.89 5.24-18.22 10.26-28.5 14.58-6.93 2.9-12.15 5.3-16.78 8.33 6.22-13.42 13.76-54.4 11.33-75.43a42.756 42.756 0 0 0 -12.12-24.01c-5.81-5.48-12.94-7.75-19.68-2.44-4.19 3.3-4.59 10.41-5.63 21.26l-2.48 14.71h-.01l-1.58 9.38a77.915 77.915 0 0 1 -10.86 28.48l-10.93 17.39c-7.67 12.48-19.73 86.56-23.64 111.57a18.775 18.775 0 0 1 -8.3 12.84l-36.78 23.99-2.12 1.38 75.26 96.28 66.37-54.96c1.92-1.6 3.73-3.32 5.51-5.07a43.8 43.8 0 0 1 16.03-10.04c15.64-5.57 44.01-24.01 79.51-59.23l69.84-62.56a25.57 25.57 0 0 0 5.93-31.15l-2.57-4.92 19.4-15.49a16.228 16.228 0 0 0 -10.11-28.91 16.066 16.066 0 0 0 -7.62 1.91l30.25-22.34a17.245 17.245 0 0 0 4.04-23.52z" fill="#f6e4d5"/><path d="m181 162.864c-5.81-5.48-12.94-7.75-19.68-2.44-4.19 3.3-4.59 10.41-5.63 21.26l-2.48 14.71h-.01l-1.58 9.38a77.915 77.915 0 0 1 -10.86 28.48l-10.93 17.39c-7.67 12.48-19.73 86.56-23.64 111.57a18.775 18.775 0 0 1 -8.3 12.84l-36.78 23.99-2.12 1.38 13.339 17.065 8.781-8.445 36.78-23.99a18.775 18.775 0 0 0 8.3-12.84c3.91-25.01 15.97-99.09 23.64-111.57l10.93-17.39a77.915 77.915 0 0 0 10.86-28.48l1.58-9.38h.01l2.48-14.71c1.04-10.85 1.44-17.96 5.63-21.26a14.434 14.434 0 0 1 4.182-2.333 35.63 35.63 0 0 0 -4.502-5.227z" fill="#e2ccbc"/><path d="m369.733 157.853a18.442 18.442 0 0 0 -20.233.141l-122.43 81.4c-4.825 3.2-31.517 15.559-41.711 20.3a6 6 0 0 0 -3.319 4.126c-.512 2.271-1.041 4.449-1.58 6.5a6 6 0 0 0 8.36 6.944c10.939-5.1 25.3-11.433 29.75-13.3 10.28-4.32 20.61-9.34 28.5-14.58l122.43-81.4.064-.043z" fill="#e2ccbc"/><g fill="#344d6b"><path d="m356.638 81.488a6 6 0 0 0 8.053-2.674l31-61.829a6 6 0 0 0 -10.728-5.379l-31 61.829a6 6 0 0 0 2.675 8.053z"/><path d="m370.323 98.362a6 6 0 0 0 8.234 2.053l65.711-39.484a6 6 0 0 0 -6.181-10.285l-65.711 39.484a6 6 0 0 0 -2.053 8.232z"/><path d="m453.013 110.494h-.064l-67.3.7a6 6 0 0 0 .06 12h.064l67.295-.7a6 6 0 0 0 -.06-12z"/><path d="m400.905 168.254a23.016 23.016 0 0 0 -16.8 3.24 24.459 24.459 0 0 0 -37.929-18.5l-28.447 18.915 15.3-24.123a22.236 22.236 0 0 0 -15.565-34.078l11.644-16.5a23.2 23.2 0 0 0 -37.045-27.908 24.451 24.451 0 0 0 -41.846-5.475l-70.334 90.685a23.665 23.665 0 0 0 -3.056-1.553 18.48 18.48 0 0 0 -19.221 2.755c-5.936 4.672-6.674 12.508-7.695 23.353l-.174 1.832-2.1 12.422c-3.47 3.356-8.509 8.051-11.762 10.979q-.5.447-.983.889c-1.29-19.343-6.292-47.488-13.587-63.047-5.171-11.028-18.738-23.5-31.64-24.416a18.48 18.48 0 0 0 -17.359 8.731c-3.81 5.811-2.6 12.762-.456 22.093.391 1.7.729 3.417 1.009 5.139l3.741 23.072a71.622 71.622 0 0 1 -1.152 28.107l-4.848 20.034c-3.364 14.5 6.67 78.683 12.95 115.65a12.837 12.837 0 0 1 -2.58 10.1l-24.419 45.2-.84.548a6 6 0 0 0 -1.449 8.721l75.26 96.28a6.005 6.005 0 0 0 4.082 2.27 6.079 6.079 0 0 0 .646.035 6.006 6.006 0 0 0 3.827-1.379l66.366-54.962c2.172-1.8 4.2-3.744 5.894-5.41a37.6 37.6 0 0 1 13.839-8.669c20.121-7.162 50.67-29.822 81.717-60.616l69.54-62.288a31.45 31.45 0 0 0 7.327-38.464l-.285-.546 15.534-12.4a22.236 22.236 0 0 0 -3.865-37.226l16.21-11.973a23.235 23.235 0 0 0 -9.449-41.516zm-141.205-97.074a12.479 12.479 0 0 1 21.164 12.92l-77.441 110.76a6 6 0 1 0 9.824 6.891l87.913-124.646a11.215 11.215 0 0 1 18.129 13.2l-86.309 122.295a6 6 0 1 0 9.8 6.92l63.548-90.042a10.159 10.159 0 0 1 14.068-2 10.25 10.25 0 0 1 2.519 13.846l-29.765 46.93-69.402 46.146c-6.775 4.5-16.027 9.23-27.5 14.042-1.463.614-2.845 1.207-4.187 1.8 4.869-18.72 9-46.921 7.016-64.052-.871-7.532-4.648-16.625-10.254-23.621zm-168.973 286.47a24.859 24.859 0 0 0 4.654-19.109c-9.971-58.689-15.11-102.231-13.107-110.871l4.84-19.98a83.549 83.549 0 0 0 1.344-32.79l-3.916-23.975q-.422-2.571-1.007-5.111c-1.34-5.842-2.352-11.01-1.193-12.778a6.538 6.538 0 0 1 6.472-3.34c7.126.506 17.636 9.03 21.626 17.54 8.18 17.446 13.7 55.915 12.685 70.546a72.416 72.416 0 0 0 -9.137 17.377 6.157 6.157 0 0 0 3.328 7.954 5.992 5.992 0 0 0 7.792-3.439c4.821-12.582 9.216-17.857 18.554-26.242a71.576 71.576 0 0 1 -7.984 17.628l-10.961 17.447c-7.8 12.679-18.668 76.733-24.455 113.787a12.806 12.806 0 0 1 -5.649 8.735l-17.074 11.133zm312.5-157.532-130.327 96.258a6 6 0 1 0 7.129 9.652l99.647-73.6a10.172 10.172 0 0 1 12.814 3.262 10.238 10.238 0 0 1 -1.968 13.9l-106.722 85.2a6 6 0 0 0 7.486 9.379l81.574-65.121a19.484 19.484 0 0 1 -5.279 22.259l-70.136 62.841c-35.155 34.867-62.977 52.735-77.292 57.831a49.509 49.509 0 0 0 -18.225 11.414c-1.591 1.564-3.315 3.219-5.136 4.727l-61.614 51.026-67.437-86.267 33.426-21.8a24.823 24.823 0 0 0 10.952-16.935c9.187-58.824 18.144-101.747 22.79-109.3l10.93-17.4a83.539 83.539 0 0 0 11.693-30.667l4.074-24.095c.024-.141.043-.284.057-.427l.195-2.064c.657-6.973 1.277-13.559 3.17-15.049a6.529 6.529 0 0 1 7.188-1.106c6.6 2.747 13.86 14.179 14.941 23.525 2.218 19.18-4.625 57.151-10.187 70.786a72.345 72.345 0 0 0 -14.524 13.882 6 6 0 1 0 9.26 7.633c9.342-11.334 15.423-14.585 29.185-20.357 12.17-5.107 22.1-10.192 29.5-15.117l122.427-81.4a12.28 12.28 0 0 1 10.135-1.655 12.508 12.508 0 0 1 5.836 20.646l-117.828 86.821a6 6 0 1 0 7.1 9.67l132.18-96.663a11.223 11.223 0 0 1 12.98 18.309z"/></g></svg>